<?xml version="1.0" encoding="utf-8"?><!-- Uploaded to: SVG Repo, www.svgrepo.com, Generator: SVG Repo Mixer Tools -->
<svg width="800px" height="800px" viewBox="-6.1 0 50.452 50.452" xmlns="http://www.w3.org/2000/svg">
  <path id="goblet" d="M407.964,145.9v14.531H413.3c.471,0,.853.286.853.638L415,162.35c0,.353-.382.638-.853.638H400.5c-.471,0-.853-.286-.853-.638l.853-1.277c0-.352.382-.638.853-.638h4.694V145.961c-10.348-.277-18.666-9.756-18.666-21.433,0-4.442.078-8.568,2.138-11.992h33.976c2.06,3.424,2.138,7.55,2.138,11.992C425.629,135.826,417.842,145.065,407.964,145.9Zm15.9-19.458c.015-.222.037-.441.045-.665-.008.224-.031.443-.045.665Zm-.2,1.822v0a19.934,19.934,0,0,1-2.932,7.768A19.842,19.842,0,0,0,423.667,128.268ZM406.5,144.094Zm-14.23-8.055a20.13,20.13,0,0,1-3.175-10.258A20.07,20.07,0,0,0,392.273,136.039Zm29.719-21.609H391.014c-1.878,3.036-1.949,6.7-1.949,10.634,0,.018,0,.035,0,.053s-.005.036-.005.055c0,.053.012.1.015.156.008.151.016.3.021.453h.053c.568,2.153,4.084,3.812,8.348,3.812s7.78-1.66,8.348-3.812h.4c1.015-2.157,4.517-3.75,8.694-3.75s7.679,1.593,8.694,3.75h.277c.008-.24.033-.475.033-.717C423.942,121.125,423.871,117.466,421.992,114.43Z" transform="translate(-387.378 -112.536)" fill="#2d5be2"/>
</svg>